<svg width="800" height="600" xmlns="http://www.w3.org/2000/svg">

 <g>
  <title>Layer 1</title>
  <path id="svg_1" d="m491,-7c153,82 153,24 153,82c0,58 13,63 -17,76c-30,13 -72,-6 -105,-44c-33,-38 -39,-112 -65,-49c-26,63 -49,107 17,126c66,19 135,-13 159,34c24,47 95,97 -8,115c-103,18 -187,15 -228,-34c-41,-49 -64,-158 -57,-218c7,-60 8,-81 18,-85c10,-4 -20,-85 133,-3z" opacity="NaN" fill="#7AD6CA"/>
  <path id="svg_2" d="m832,178c-12,-8 -96,-75 -117,-33c-21,42 -44,54 -2,90c42,36 99,68 105,68c6,0 26,-117 14,-125z" opacity="NaN" fill="#7AD6CA"/>
  <path id="svg_3" d="m832,393c-26,-29 -68,-25 -142,-18c-74,7 -80,27 -166,19c-86,-8 -73,-9 -112,-32c-39,-23 -62,-135 -76,-49c-14,86 -50,149 41,158c91,9 129,-14 186,18c57,32 69,22 77,55c8,33 -66,117 6,130c72,13 193,-55 194,-55c1,0 18,-197 -8,-226z" opacity="NaN" fill="#7AD6CA"/>
  <path id="svg_4" d="m411,647c430,-28 12,-80 -36,-118c-48,-38 -82,-62 -96,-113c-14,-51 -6,-76 -33,-118c-27,-42 -69,-20 -62,7c7,27 34,60 53,116c19,56 40,63 30,112c-10,49 -11,60 -17,84c-6,24 589,2 161,30z" opacity="NaN" fill="#7AD6CA"/>
  <path id="svg_5" d="m158,649c86,-8 51,-22 51,-26c0,-4 40,-119 8,-161c-32,-42 -25,-63 -55,-64c-30,-1 -32,13 -31,73c1,60 -9,97 -9,128c0,31 134,-6 36,50z" opacity="NaN" fill="#7AD6CA"/>
  <path id="svg_6" d="m85,636c2,-2 51,-168 -15,-168c-66,0 -63,-23 -85,11c-22,34 5,121 6,126c1,5 92,33 94,31z" opacity="NaN" fill="#7AD6CA"/>
 </g>
</svg>