<svg xmlns="http://www.w3.org/2000/svg" width="1080" height="720" viewBox="0 0 1080 720">
  <defs>
    <style>
      .cls-1 {
        fill: #85ceea;
        fill-rule: evenodd;
      }
    </style>
  </defs>
  <path class="cls-1" d="M212-13C197.514,42.805,319.7,152.5,453,186c86.547,21.753,149.226,4.5,199.5,54,45.342,44.647,28.406,92.646,78,141,45.669,44.527,122.712,65.3,151.5,39,34-31.059,11.7-137.816-51-183-54.737-39.445-132.2-7.386-171-54-19.588-23.533-24.878-60.744-10.5-79.5C676.363,68.458,784.309,81.461,840,141c43.282,46.273,33.649,126.275,79.5,147,28,12.654,67.61,1.232,81-21,23.87-39.636-32.086-119.443-88.5-162C873.989,76.326,810.5,45.684,736.5,51c-45.89,3.3-89.451,34-147,24-33.7-5.854-80.57-25.763-111-67.5-12.865-17.645-14.171-33.73-30-49.5C387.945-102.331,226.587-69.193,212-13Zm880,526c-42.9,17.818-135.623-63.264-139-141-0.775-17.829,1.7-32.05,10-36,13.8-6.567,30.8,21.259,69,48,40.33,28.229,76.06,30.526,85.5,60C1125.74,469.708,1113.22,504.187,1092,513Zm-6,86c-91.665-129.993-299.986-54.283-421.5-180.5-30.961-32.159-54.277-92.038-111-132-51.031-35.952-123.312-64.217-144-42-10.727,11.519-7.385,36.433,3,54,27.082,45.808,112.959,37.515,162,67.5,21.213,12.97,61.6,54.137,90,114,26.572,56,17.384,97.589,52.5,153,24.056,37.958,63.215,73.046,123,100.5,43.429,19.943,100.56,33.438,174,25.5,54.74-5.917,88.47-26.153,96-39C1131.15,683.893,1107.49,629.481,1086,599ZM708,738c40.147-51.576-51.1-179.856-102-243C517.653,385.408,431.673,347.744,381,348c-16.446.083-67.341,3.219-73.5,25.5-3.9,14.118,10.973,33.776,28.5,43.5,35.866,19.9,73.393-10.1,111-1.5,57.031,13.047,97.573,84.3,109.5,141,14.534,69.1-32.066,153.117,1.5,189,9.624,10.288,39.12,19.932,84,15.5C677.154,757.529,701.863,745.884,708,738ZM392,689c7.6-63.134,7.2-149.66-35-206-53.492-71.411-165.114-70.815-189-144-10.4-31.854,6.826-53.1-9-90-16.56-38.616-57.992-74.26-85.5-64.5-23.65,8.391-33.489,49.12-30,81,5.477,50.048,44.144,77.064,81,115.5,70.573,73.6,97.912,145.71,97.5,180-0.762,63.381-60.182,112.2-42,165,15.044,43.691,75.831,78.259,129,66,30.5-7.033,52.265-28.971,64.5-48C384.859,726.334,389.668,708.375,392,689ZM-13,378c33.549-16.457,99.511,38.87,131.5,97.5,24.861,45.566,26.263,85.447,22.5,106.5-9.524,53.28-47.208,90.041-84,106.5C18.934,705.529-5.637,704.79-19.5,696-52.381,675.151-30.556,569.581-36,530c-2.9-21.06-13.166-82.757,6-131C-27.235,392.039-22.7,382.758-13,378ZM1095,84c-25.81,27.73-110.126,1.135-150-51C926.624,8.973,923.037-8.462,927-19.5,938.348-51.111,1009.71-66,1056-36,1100.66-7.064,1116.98,60.384,1095,84Z"/>
</svg>
